<svg width="149" height="140" viewBox="0 0 149 140" fill="none" xmlns="http://www.w3.org/2000/svg">
<path d="M74.8518 45.8261H88.6109V65.6578H74.8518V45.8261Z" fill="#934D36"/>
<path d="M74.8518 50.5956V61.7444L83.622 65.6578H88.6109V56.7352L74.8518 50.5956Z" fill="#7A402B"/>
<path d="M102.605 137.819H16.6921V76.5498L59.6485 56.0417L102.605 76.5498V137.819Z" fill="#EAB14D"/>
<path d="M59.6485 56.0417L16.6921 76.5498V84.961L57.0712 66.943C58.7115 66.2111 60.5855 66.2111 62.2258 66.943L92.9594 80.6569C95.2389 81.6742 96.707 83.9368 96.707 86.4326V137.818H102.605V84.961V76.5498L59.6485 56.0417Z" fill="#E7A52E"/>
<path d="M112.019 82.804C111.325 82.8043 110.621 82.6618 109.947 82.3613L59.8143 59.9909C59.7087 59.9438 59.5883 59.9438 59.4827 59.9909L9.34964 82.361C6.7825 83.5065 3.77232 82.354 2.62649 79.7863C1.48094 77.2188 2.63347 74.2087 5.2012 73.0631L57.5744 49.6935C58.8945 49.1042 60.4031 49.1045 61.7232 49.6935L114.096 73.0631C116.664 74.2087 117.816 77.2188 116.671 79.7863C115.825 81.68 113.966 82.804 112.019 82.804Z" fill="#BE694F"/>
<path d="M116.67 79.7866C117.816 77.2191 116.663 74.209 114.096 73.0634L61.7226 49.6938C60.4025 49.1048 58.894 49.1045 57.5739 49.6938L53.2186 51.6373C53.7882 51.6832 54.3519 51.8203 54.8851 52.0579L107.258 75.4275C109.826 76.573 110.978 79.5832 109.833 82.1507C109.813 82.1955 109.789 82.2376 109.769 82.2816L109.947 82.3613C110.621 82.6618 111.325 82.8043 112.019 82.804C113.966 82.804 115.825 81.6803 116.67 79.7866Z" fill="#AA593D"/>
<path d="M102.605 111.902H140.543V137.819H102.605V111.902Z" fill="#EAB14D"/>
<path d="M102.605 111.902V116.654H130.131C132.74 116.654 134.856 118.769 134.856 121.379V137.818H140.543V111.902H102.605Z" fill="#E7A52E"/>
<path d="M68.1322 137.819H51.1646V114.685L59.6485 107.338L68.1322 114.685V137.819Z" fill="#BE694F"/>
<path d="M59.6485 107.338L55.8343 110.641L61.9431 115.932C62.9429 116.798 63.5174 118.055 63.5174 119.378V137.818H68.1322V114.685L59.6485 107.338Z" fill="#AA593D"/>
<path d="M72.2283 120.415C71.7221 120.415 71.2136 120.24 70.8008 119.883L59.9147 110.455C59.7617 110.323 59.5348 110.323 59.3818 110.455L48.4956 119.883C47.5846 120.671 46.2069 120.573 45.418 119.662C44.6294 118.751 44.7283 117.373 45.639 116.584L58.2199 105.689C59.0397 104.979 60.2568 104.979 61.0765 105.689L73.6574 116.584C74.5682 117.373 74.6671 118.751 73.8785 119.662C73.4471 120.16 72.8394 120.415 72.2283 120.415Z" fill="#7A402B"/>
<path d="M53.7506 92.9318C53.7506 93.1567 53.5685 93.3388 53.3437 93.3388H42.2711C42.0462 93.3388 41.8641 93.1567 41.8641 92.9318V80.0414C41.8641 79.8828 41.956 79.7389 42.0997 79.6722L53.1723 74.5304C53.2983 74.4719 53.4455 74.4818 53.5627 74.5566C53.68 74.6313 53.7506 74.7608 53.7506 74.8995V92.9318Z" fill="#F9F6F9"/>
<path d="M48.5916 93.3388H53.3437C53.5685 93.3388 53.7506 93.1567 53.7506 92.9318V74.8995C53.7506 74.7605 53.6797 74.6313 53.5627 74.5566C53.4458 74.4818 53.2983 74.4719 53.1723 74.5304L48.5919 76.6574V93.3388H48.5916Z" fill="#DDDAEC"/>
<path d="M65.5461 92.9318C65.5461 93.1567 65.7282 93.3388 65.9531 93.3388H77.0257C77.2506 93.3388 77.4326 93.1567 77.4326 92.9318V80.0414C77.4326 79.8828 77.3407 79.7389 77.197 79.6722L66.1244 74.5304C65.9985 74.4719 65.8513 74.4818 65.734 74.5566C65.6168 74.6313 65.5461 74.7608 65.5461 74.8995V92.9318Z" fill="#F9F6F9"/>
<path d="M72.2725 93.3388H77.0245C77.2494 93.3388 77.4315 93.1567 77.4315 92.9318V80.0408C77.4315 79.8823 77.3396 79.7383 77.1959 79.6717L72.2725 77.3852V93.3388Z" fill="#DDDAEC"/>
<path d="M143.049 111.902H102.605V104.487H143.049C145.096 104.487 146.756 106.147 146.756 108.195C146.756 110.242 145.096 111.902 143.049 111.902Z" fill="#BE694F"/>
<path d="M137.231 104.487H102.605V97.0721H137.231C139.279 97.0721 140.938 98.732 140.938 100.78C140.938 102.827 139.279 104.487 137.231 104.487Z" fill="#934D36"/>
<path d="M128.504 97.0721H102.605V89.6572H128.504C130.552 89.6572 132.212 91.317 132.212 93.3647C132.212 95.4123 130.552 97.0721 128.504 97.0721Z" fill="#BE694F"/>
<path d="M143.049 104.487H136.639C138.686 104.487 140.346 106.147 140.346 108.194C140.346 110.242 138.686 111.902 136.639 111.902H143.049C145.096 111.902 146.756 110.242 146.756 108.194C146.756 106.147 145.096 104.487 143.049 104.487Z" fill="#AA593D"/>
<path d="M137.231 97.0721H130.821C132.868 97.0721 134.528 98.732 134.528 100.78C134.528 102.827 132.868 104.487 130.821 104.487H137.231C139.279 104.487 140.938 102.827 140.938 100.78C140.938 98.732 139.279 97.0721 137.231 97.0721Z" fill="#7A402B"/>
<path d="M128.504 89.6572H122.094C124.142 89.6572 125.801 91.317 125.801 93.3647C125.801 95.4123 124.142 97.0721 122.094 97.0721H128.504C130.552 97.0721 132.212 95.4123 132.212 93.3647C132.212 91.317 130.552 89.6572 128.504 89.6572Z" fill="#AA593D"/>
<path d="M92.0231 48.0078H71.4399C70.2348 48.0078 69.2582 47.031 69.2582 45.8261C69.2582 44.6212 70.2348 43.6444 71.4399 43.6444H92.0231C93.2282 43.6444 94.2048 44.6212 94.2048 45.8261C94.2048 47.031 93.2279 48.0078 92.0231 48.0078Z" fill="#7A402B"/>
<path d="M86.0949 42.4261C84.8897 42.4261 83.9132 41.4493 83.9132 40.2444V37.8559C83.9132 34.1208 86.9519 31.0818 90.687 31.0818H100.388C102.347 31.0818 103.941 29.488 103.941 27.5291V27.1966C103.941 25.2377 102.347 23.6439 100.388 23.6439H97.5212C93.1564 23.6439 89.6051 20.0927 89.6051 15.7278C89.6051 11.3629 93.1564 7.81168 97.5212 7.81168C98.8503 7.81168 99.9319 6.73043 99.9319 5.40133V2.18171C99.9319 0.976824 100.908 0 102.114 0C103.319 0 104.295 0.976824 104.295 2.18171V5.40162C104.295 9.13671 101.257 12.1754 97.5212 12.1754C95.5624 12.1754 93.9685 13.7692 93.9685 15.7281C93.9685 17.687 95.5624 19.2808 97.5212 19.2808H100.388C104.753 19.2808 108.304 22.832 108.304 27.1969V27.5294C108.304 31.8943 104.753 35.4455 100.388 35.4455H90.687C89.3579 35.4455 88.2766 36.5268 88.2766 37.8561V40.2447C88.2766 41.4496 87.2998 42.4261 86.0949 42.4261Z" fill="#DDDAEC"/>
<path d="M76.1062 42.4261C74.901 42.4261 73.9245 41.4493 73.9245 40.2444V33.9695C73.9245 31.1621 76.2086 28.878 79.016 28.878C80.8859 28.878 82.407 27.3569 82.407 25.4867C82.407 23.6166 80.8859 22.0955 79.016 22.0955C76.2086 22.0955 73.9245 19.8114 73.9245 17.0043V13.6427C73.9245 12.4378 74.901 11.461 76.1062 11.461C77.3114 11.461 78.2879 12.4378 78.2879 13.6427V17.0045C78.2879 17.406 78.6146 17.7324 79.016 17.7324C83.2919 17.7324 86.7704 21.2109 86.7704 25.487C86.7704 29.7632 83.2919 33.2417 79.016 33.2417C78.6146 33.2417 78.2879 33.5684 78.2879 33.9698V40.2447C78.2879 41.4496 77.3114 42.4261 76.1062 42.4261Z" fill="#DDDAEC"/>
<path d="M84.0586 15.8244C82.8535 15.8244 81.8769 14.8476 81.8769 13.6427V4.59614C81.8769 3.39125 82.8535 2.41443 84.0586 2.41443C85.2638 2.41443 86.2404 3.39125 86.2404 4.59614V13.6427C86.2404 14.8476 85.2635 15.8244 84.0586 15.8244Z" fill="#DDDAEC"/>
<path d="M32.7222 88.3723H16.6921C15.4869 88.3723 14.5104 87.3958 14.5104 86.1906C14.5104 84.9854 15.4869 84.0089 16.6921 84.0089H32.7222C33.9273 84.0089 34.9039 84.9854 34.9039 86.1906C34.9039 87.3958 33.9273 88.3723 32.7222 88.3723Z" fill="#AA593D"/>
<path d="M29.8132 99.0001H16.6921C15.487 99.0001 14.5104 98.0236 14.5104 96.8184C14.5104 95.6133 15.487 94.6367 16.6921 94.6367H29.8132C31.0184 94.6367 31.9949 95.6133 31.9949 96.8184C31.9949 98.0236 31.0184 99.0001 29.8132 99.0001Z" fill="#AA593D"/>
<path d="M28.6496 109.628H16.6921C15.487 109.628 14.5104 108.652 14.5104 107.447C14.5104 106.241 15.487 105.265 16.6921 105.265H28.6496C29.8548 105.265 30.8314 106.241 30.8314 107.447C30.8314 108.652 29.8548 109.628 28.6496 109.628Z" fill="#AA593D"/>
<path d="M29.3108 120.256H16.6921C15.487 120.256 14.5104 119.28 14.5104 118.074C14.5104 116.869 15.487 115.893 16.6921 115.893H29.3108C30.516 115.893 31.4926 116.869 31.4926 118.074C31.4926 119.28 30.5157 120.256 29.3108 120.256Z" fill="#AA593D"/>
<path d="M35.6311 130.884H16.6921C15.487 130.884 14.5104 129.907 14.5104 128.702C14.5104 127.497 15.487 126.521 16.6921 126.521H35.6311C36.8363 126.521 37.8128 127.497 37.8128 128.702C37.8128 129.907 36.8363 130.884 35.6311 130.884Z" fill="#AA593D"/>
<path d="M102.605 88.3723H86.5749C85.3697 88.3723 84.3932 87.3958 84.3932 86.1906C84.3932 84.9854 85.3697 84.0089 86.5749 84.0089H102.605C103.81 84.0089 104.787 84.9854 104.787 86.1906C104.787 87.3958 103.81 88.3723 102.605 88.3723Z" fill="#AA593D"/>
<path d="M102.605 99.0001H89.4838C88.2787 99.0001 87.3021 98.0236 87.3021 96.8184C87.3021 95.6133 88.2787 94.6367 89.4838 94.6367H102.605C103.81 94.6367 104.787 95.6133 104.787 96.8184C104.787 98.0236 103.81 99.0001 102.605 99.0001Z" fill="#AA593D"/>
<path d="M102.605 109.628H90.6474C89.4422 109.628 88.4657 108.652 88.4657 107.447C88.4657 106.241 89.4422 105.265 90.6474 105.265H102.605C103.81 105.265 104.787 106.241 104.787 107.447C104.787 108.652 103.81 109.628 102.605 109.628Z" fill="#AA593D"/>
<path d="M102.605 120.256H89.9862C88.781 120.256 87.8045 119.28 87.8045 118.074C87.8045 116.869 88.781 115.893 89.9862 115.893H102.605C103.81 115.893 104.787 116.869 104.787 118.074C104.787 119.28 103.81 120.256 102.605 120.256Z" fill="#AA593D"/>
<path d="M102.605 130.884H83.6659C82.4608 130.884 81.4842 129.907 81.4842 128.702C81.4842 127.497 82.4608 126.521 83.6659 126.521H102.605C103.81 126.521 104.787 127.497 104.787 128.702C104.787 129.907 103.81 130.884 102.605 130.884Z" fill="#AA593D"/>
<path d="M140.544 122.451H118.271C117.066 122.451 116.089 121.475 116.089 120.27C116.089 119.065 117.066 118.088 118.271 118.088H140.544C141.749 118.088 142.725 119.065 142.725 120.27C142.725 121.475 141.749 122.451 140.544 122.451Z" fill="#AA593D"/>
<path d="M140.544 130.884H124.089C122.883 130.884 121.907 129.907 121.907 128.702C121.907 127.497 122.883 126.521 124.089 126.521H140.544C141.749 126.521 142.725 127.497 142.725 128.702C142.725 129.907 141.749 130.884 140.544 130.884Z" fill="#AA593D"/>
<path d="M110.042 130.884H102.605C101.4 130.884 100.423 129.907 100.423 128.702C100.423 127.497 101.4 126.521 102.605 126.521H110.042C111.247 126.521 112.224 127.497 112.224 128.702C112.224 129.907 111.247 130.884 110.042 130.884Z" fill="#AA593D"/>
<path d="M146.756 140H2.18171C0.976533 140 0 139.023 0 137.818C0 136.613 0.976533 135.637 2.18171 135.637H146.756C147.962 135.637 148.938 136.613 148.938 137.818C148.938 139.023 147.962 140 146.756 140Z" fill="#7A402B"/>
<path d="M90.8414 121.714H82.4293C81.5462 121.714 80.8303 120.998 80.8303 120.115V105.517C80.8303 104.634 81.5462 103.918 82.4293 103.918H90.8414C91.7246 103.918 92.4405 104.634 92.4405 105.517V120.115C92.4405 120.998 91.7246 121.714 90.8414 121.714Z" fill="#F9F6F9"/>
<path d="M90.8414 103.918H85.5317C86.4149 103.918 87.1308 104.634 87.1308 105.517V120.115C87.1308 120.998 86.4149 121.714 85.5317 121.714H90.8412C91.7243 121.714 92.4402 120.998 92.4402 120.115V105.517C92.4405 104.634 91.7246 103.918 90.8414 103.918Z" fill="#DDDAEC"/>
<path d="M36.8677 121.714H28.4556C27.5724 121.714 26.8566 120.998 26.8566 120.115V105.517C26.8566 104.634 27.5724 103.918 28.4556 103.918H36.8677C37.7508 103.918 38.4667 104.634 38.4667 105.517V120.115C38.4667 120.998 37.7508 121.714 36.8677 121.714Z" fill="#F9F6F9"/>
<path d="M36.8677 103.918H31.5583C32.4414 103.918 33.1573 104.634 33.1573 105.517V120.115C33.1573 120.998 32.4414 121.714 31.5583 121.714H36.8677C37.7509 121.714 38.4667 120.998 38.4667 120.115V105.517C38.4667 104.634 37.7509 103.918 36.8677 103.918Z" fill="#DDDAEC"/>
</svg>
