<svg width="70" height="70" viewBox="0 0 70 70" fill="none" xmlns="http://www.w3.org/2000/svg">
<path d="M16.4062 35C16.4062 31.5319 17.3618 28.283 19.0218 25.5012V13.7013H7.22189C2.53859 19.7836 0 27.1964 0 35C0 42.8037 2.53859 50.2164 7.22189 56.2988H19.0218V44.4988C17.3618 41.717 16.4062 38.4682 16.4062 35Z" fill="#FBBD00"/>
<path d="M35 53.5938L26.7969 61.797L35 70.0001C42.8038 70.0001 50.2164 67.4615 56.2987 62.7782V50.9908H44.5114C41.7052 52.6569 38.4427 53.5938 35 53.5938Z" fill="#0F9D58"/>
<path d="M19.0218 44.4988L7.22186 56.2987C8.14909 57.5029 9.15876 58.6561 10.2513 59.7488C16.8619 66.3593 25.6511 70 35 70V53.5937C28.2154 53.5937 22.2691 49.9406 19.0218 44.4988Z" fill="#31AA52"/>
<path d="M70 35C70 32.8706 69.8072 30.7373 69.4269 28.6594L69.1191 26.9779H35V43.3842H51.6048C49.9923 46.5917 47.513 49.2086 44.5112 50.9909L56.2986 62.7783C57.5028 61.851 58.656 60.8414 59.7487 59.7488C66.3593 53.1381 70 44.3488 70 35Z" fill="#3C79E6"/>
<path d="M48.1478 21.8522L49.5979 23.3022L61.1989 11.7013L59.7488 10.2513C53.1382 3.64068 44.349 0 35 0L26.7969 8.20312L35 16.4062C39.9664 16.4062 44.6358 18.3403 48.1478 21.8522Z" fill="#CF2D48"/>
<path d="M35 16.4062V0C25.6512 0 16.8619 3.64068 10.2512 10.2512C9.15864 11.3437 8.14897 12.4969 7.22174 13.7013L19.0217 25.5012C22.2691 20.0594 28.2155 16.4062 35 16.4062Z" fill="#EB4132"/>
</svg>
