<svg width="75" height="75" viewBox="0 0 75 75" fill="none" xmlns="http://www.w3.org/2000/svg">
<path d="M37.5 0C28.102 0 19.513 3.4582 12.933 9.17036L37.5 40.1055L73.587 27.2694C69.134 11.5312 54.6639 0 37.5 0Z" fill="#85FAF4"/>
<path d="M49.0768 14.9803C49.0182 14.9646 48.9598 14.9509 48.9012 14.9381C49.309 12.6275 47.8879 10.3493 45.5789 9.73337C43.2697 9.1174 40.9028 10.3849 40.1057 12.5917C40.0485 12.5736 39.9908 12.5564 39.9324 12.5407C37.9528 12.0127 35.9199 13.1894 35.3918 15.169C34.8637 17.1486 36.0404 19.1815 38.02 19.7095C39.6278 20.1385 45.5568 21.72 47.1646 22.1491C49.1442 22.6772 51.1771 21.5005 51.7052 19.5209C52.2331 17.5413 51.0564 15.5084 49.0768 14.9803Z" fill="#389F4D"/>
<path d="M72.1556 23.1533C70.2514 18.5586 67.4603 14.4253 63.9957 10.9656C63.1354 11.0203 62.3517 11.356 61.7383 11.886C60.9299 10.7794 59.6233 10.0601 58.1479 10.0601C55.6932 10.0601 53.7032 12.0499 53.7032 14.5047C53.7032 15.2529 53.889 15.9575 54.2156 16.5761C54.0475 16.5568 53.8767 16.5458 53.7032 16.5458C51.2486 16.5458 49.2586 18.5356 49.2586 20.9904V23.1544H72.1556V23.1533Z" fill="#60B550"/>
<path d="M1.41299 27.2692C3.42789 20.1483 7.49341 13.8887 12.9316 9.1687C37.7337 11.8536 42.411 22.3999 72.1556 23.1542C72.7087 24.4891 73.1887 25.8618 73.587 27.2692L37.5 34.1834L1.41299 27.2692Z" fill="#85D249"/>
<path d="M1.41299 27.2692L37.5 34.1834L44.5065 32.841V27.2692C11.6692 27.2692 12.9316 9.1687 12.9316 9.1687C7.49341 13.8887 3.42789 20.1483 1.41299 27.2692Z" fill="#60B550"/>
<path d="M0 37.5C0 43.2964 1.31587 48.7851 3.66387 53.6851L37.5 67.3635L71.3361 53.685C73.6841 48.7851 75 43.2964 75 37.5C75 33.9532 74.5072 30.5215 73.587 27.2693H1.41299C0.492773 30.5215 0 33.9532 0 37.5H0Z" fill="#64B6EC"/>
<path d="M41.1419 46.5209C42.4709 46.5209 43.5483 45.4435 43.5483 44.1145C43.5483 42.7854 42.4709 41.708 41.1419 41.708H32.9602C31.6311 41.708 30.5537 40.6306 30.5537 39.3016C30.5537 37.9725 29.4763 36.8951 28.1473 36.8951H0.00527344C0.00205078 37.0964 0 37.298 0 37.5C0 40.6104 0.382178 43.6311 1.09629 46.5209H41.1419Z" fill="#3188CA"/>
<path d="M55.1408 46.521C53.8118 46.521 52.7344 47.5984 52.7344 48.9274C52.7344 50.2565 51.657 51.3339 50.3279 51.3339H39.9064C38.5774 51.3339 37.5 52.4113 37.5 53.7403C37.5 55.0694 38.5774 56.1468 39.9064 56.1468H65.2462L71.336 53.685C72.4239 51.4145 73.287 49.0164 73.9036 46.521H55.1408Z" fill="#3188CA"/>
<path d="M42.1 29.6757C42.1 31.0048 41.0226 32.0822 39.6936 32.0822H37.5602C36.2311 32.0822 35.1537 33.1596 35.1537 34.4886C35.1537 35.8177 36.2311 36.8951 37.5602 36.8951H66.7163C68.0453 36.8951 69.1227 35.8177 69.1227 34.4886C69.1227 33.1596 70.2001 32.0822 71.5292 32.0822H74.61C74.3725 30.4413 74.0297 28.8343 73.5869 27.2693H44.5065C43.1774 27.2693 42.1 28.3467 42.1 29.6757Z" fill="#3188CA"/>
<path d="M58.4505 40.1934C57.7481 39.8261 57.0458 40.6896 57.5458 41.3045C62.1222 46.9336 64.2108 52.7786 65.1149 56.1999L70.3586 54.0802C67.034 45.8228 61.744 41.9159 58.4505 40.1934Z" fill="#60B550"/>
<path d="M57.065 45.7257C56.3626 45.3583 55.6604 46.2218 56.1603 46.8367C59.1299 50.4893 61.051 54.232 62.2818 57.3452L66.9485 55.4587C63.7572 49.9835 59.7485 47.1291 57.065 45.7257Z" fill="#85D249"/>
<path d="M72.7058 50.4326C69.1619 39.7137 64.0916 33.4909 60.8331 30.3595C60.2315 29.7813 59.2836 30.5015 59.6813 31.2349C64.6087 40.3194 66.9075 49.821 67.8857 55.0798L71.336 53.685C71.8427 52.6279 72.2981 51.5418 72.7058 50.4326Z" fill="#A3EA6E"/>
<path d="M37.5 67.3635H60.1802L60.1809 67.3636C64.9025 63.7718 68.7475 59.087 71.3361 53.6849C54.9882 54.1298 46.2439 57.5448 37.5 60.9598V67.3635Z" fill="#85D249"/>
<path d="M60.477 65.1865C52.1515 64.0513 46.3283 62.0178 40.5365 59.7831C39.5167 60.1723 38.5083 60.566 37.5 60.9598V67.3635H60.1802L60.1809 67.3636C60.9743 66.7601 61.7404 66.1232 62.4825 65.4598L60.477 65.1865Z" fill="#60B550"/>
<path d="M9.14485 56.3022C10.0163 51.292 12.2845 41.1817 17.5144 31.5395C17.9122 30.806 16.9642 30.0859 16.3627 30.6641C12.8259 34.0631 7.15413 41.1042 3.61697 53.5843C3.63323 53.6185 3.65052 53.6522 3.66693 53.6863L9.14485 56.3022Z" fill="#60B550"/>
<path d="M11.8153 57.5776C12.5401 54.4209 14.5512 47.8808 19.6498 41.6092C20.1498 40.9943 19.4476 40.1307 18.7452 40.4981C15.3615 42.2677 9.87114 46.3433 6.56894 55.0724L11.8153 57.5776Z" fill="#85D249"/>
<path d="M4.86549 54.2587C5.45992 50.9832 9.13976 32.1331 17.6284 17.0293C18.0504 16.2784 17.0622 15.5376 16.4651 16.1583C11.6 21.2152 3.66608 31.2819 0.835999 45.3979C1.45812 48.2999 2.41656 51.0767 3.66769 53.6869L4.86549 54.2587Z" fill="#A3EA6E"/>
<path d="M60.1802 67.3635C53.8819 72.1542 46.0238 75 37.5 75C22.5857 75 9.7056 66.2928 3.66385 53.6851C32.1885 54.461 37.5634 64.2798 60.1802 67.3635Z" fill="#A3EA6E"/>
<path d="M8.98782 53.9502C7.30486 53.826 5.5346 53.7359 3.66385 53.6849C9.7056 66.2928 22.5857 75 37.5 75C46.0238 75 53.8819 72.1543 60.1802 67.3635C34.8135 75.108 15.9668 64.1602 8.98782 53.9502Z" fill="#85D249"/>
</svg>
