<svg width="136" height="87" viewBox="0 0 136 87" fill="none" xmlns="http://www.w3.org/2000/svg">
<path fill-rule="evenodd" clip-rule="evenodd" d="M54.667 34.2726L40.6297 18.3913L54.667 2.50997L68.7042 18.3913L54.667 34.2726ZM39.2951 18.3913L53.9997 1.75498L54.667 1L55.3343 1.75498L70.0389 18.3913L55.3343 35.0276L54.667 35.7826L53.9997 35.0276L39.2951 18.3913ZM83.5629 8.55119L83.2026 8.00368L82.7698 8.49594L54.6688 40.4581L37.4354 20.6716L36.9627 20.129L36.619 20.7612L1.40163 85.5438L1 86.2826H1.84092H133.797H134.725L134.215 85.5077L83.5629 8.55119ZM55.0425 41.5475L83.088 9.64849L132.87 85.2826H2.68184L37.1539 21.871L54.29 41.5458L54.6652 41.9767L55.0425 41.5475Z" fill="black"/>
<path d="M40.6297 18.3913L40.2551 18.0601L39.9624 18.3913L40.2551 18.7224L40.6297 18.3913ZM54.667 34.2726L54.2924 34.6038L54.667 35.0276L55.0416 34.6038L54.667 34.2726ZM54.667 2.50997L55.0416 2.17883L54.667 1.75498L54.2924 2.17883L54.667 2.50997ZM68.7042 18.3913L69.0789 18.7224L69.3716 18.3913L69.0789 18.0601L68.7042 18.3913ZM53.9997 1.75498L54.3743 2.08612V2.08612L53.9997 1.75498ZM39.2951 18.3913L38.9205 18.0601L38.6278 18.3913L38.9205 18.7224L39.2951 18.3913ZM54.667 1L55.0416 0.668867L54.667 0.245016L54.2924 0.668867L54.667 1ZM55.3343 1.75498L54.9597 2.08612V2.08612L55.3343 1.75498ZM70.0389 18.3913L70.4135 18.7224L70.7062 18.3913L70.4135 18.0601L70.0389 18.3913ZM55.3343 35.0276L55.7089 35.3587L55.3343 35.0276ZM54.667 35.7826L54.2924 36.1137L54.667 36.5376L55.0416 36.1137L54.667 35.7826ZM53.9997 35.0276L53.625 35.3587V35.3587L53.9997 35.0276ZM83.2026 8.00368L83.6202 7.72879L83.2598 7.18128L82.827 7.67354L83.2026 8.00368ZM83.5629 8.55119L83.9806 8.2763V8.2763L83.5629 8.55119ZM82.7698 8.49594L82.3943 8.1658L82.7698 8.49594ZM54.6688 40.4581L54.2917 40.7865L54.667 41.2174L55.0443 40.7883L54.6688 40.4581ZM37.4354 20.6716L37.8124 20.3432L37.4354 20.6716ZM36.9627 20.129L37.3398 19.8006L36.8671 19.2579L36.5234 19.8902L36.9627 20.129ZM36.619 20.7612L37.0583 21L36.619 20.7612ZM1.40163 85.5438L0.962348 85.305H0.962347L1.40163 85.5438ZM1 86.2826L0.560714 86.0438L0.159083 86.7826H1V86.2826ZM134.725 86.2826V86.7826H135.653L135.143 86.0077L134.725 86.2826ZM134.215 85.5077L134.633 85.2328L134.215 85.5077ZM83.088 9.64849L83.5056 9.3736L83.1453 8.82609L82.7125 9.31835L83.088 9.64849ZM55.0425 41.5475L54.667 41.2174L55.0425 41.5475ZM132.87 85.2826V85.7826H133.797L133.287 85.0077L132.87 85.2826ZM2.68184 85.2826L2.24255 85.0438L1.84092 85.7826H2.68184V85.2826ZM37.1539 21.871L37.5309 21.5426L37.0583 21L36.7146 21.6322L37.1539 21.871ZM54.29 41.5458L53.9129 41.8742L54.29 41.5458ZM54.6652 41.9767L54.2882 42.305L54.6635 42.7359L55.0407 42.3068L54.6652 41.9767ZM40.2551 18.7224L54.2924 34.6038L55.0416 33.9415L41.0044 18.0601L40.2551 18.7224ZM54.2924 2.17883L40.2551 18.0601L41.0044 18.7224L55.0416 2.8411L54.2924 2.17883ZM69.0789 18.0601L55.0416 2.17883L54.2924 2.8411L68.3296 18.7224L69.0789 18.0601ZM55.0416 34.6038L69.0789 18.7224L68.3296 18.0601L54.2924 33.9415L55.0416 34.6038ZM53.6251 1.42385L38.9205 18.0601L39.6697 18.7224L54.3743 2.08612L53.6251 1.42385ZM54.2924 0.668867L53.6251 1.42385L54.3743 2.08612L55.0416 1.33113L54.2924 0.668867ZM55.709 1.42385L55.0416 0.668867L54.2924 1.33113L54.9597 2.08612L55.709 1.42385ZM70.4135 18.0601L55.709 1.42385L54.9597 2.08612L69.6643 18.7224L70.4135 18.0601ZM55.7089 35.3587L70.4135 18.7224L69.6643 18.0601L54.9597 34.6965L55.7089 35.3587ZM55.0416 36.1137L55.7089 35.3587L54.9597 34.6965L54.2924 35.4515L55.0416 36.1137ZM53.625 35.3587L54.2924 36.1137L55.0416 35.4515L54.3743 34.6965L53.625 35.3587ZM38.9205 18.7224L53.625 35.3587L54.3743 34.6965L39.6697 18.0601L38.9205 18.7224ZM82.7849 8.27858L83.1453 8.82609L83.9806 8.2763L83.6202 7.72879L82.7849 8.27858ZM83.1453 8.82609L83.5781 8.33383L82.827 7.67354L82.3943 8.1658L83.1453 8.82609ZM55.0443 40.7883L83.1453 8.82609L82.3943 8.1658L54.2933 40.128L55.0443 40.7883ZM37.0583 21L54.2917 40.7865L55.0458 40.1297L37.8124 20.3432L37.0583 21ZM36.5857 20.4573L37.0583 21L37.8124 20.3432L37.3398 19.8006L36.5857 20.4573ZM37.0583 21L37.402 20.3678L36.5234 19.8902L36.1797 20.5224L37.0583 21ZM1.84092 85.7826L37.0583 21L36.1797 20.5224L0.962348 85.305L1.84092 85.7826ZM1.43929 86.5214L1.84092 85.7826L0.962347 85.305L0.560714 86.0438L1.43929 86.5214ZM1.84092 85.7826H1V86.7826H1.84092V85.7826ZM133.797 85.7826H1.84092V86.7826H133.797V85.7826ZM134.725 85.7826H133.797V86.7826H134.725V85.7826ZM133.797 85.7826L134.307 86.5575L135.143 86.0077L134.633 85.2328L133.797 85.7826ZM83.1453 8.82609L133.797 85.7826L134.633 85.2328L83.9806 8.2763L83.1453 8.82609ZM82.7125 9.31835L54.667 41.2174L55.418 41.8777L83.4635 9.97863L82.7125 9.31835ZM133.287 85.0077L83.5056 9.3736L82.6703 9.92339L132.452 85.5575L133.287 85.0077ZM2.68184 85.7826H132.87V84.7826H2.68184V85.7826ZM36.7146 21.6322L2.24255 85.0438L3.12112 85.5214L37.5932 22.1098L36.7146 21.6322ZM54.667 41.2174L37.5309 21.5426L36.7769 22.1994L53.9129 41.8742L54.667 41.2174ZM55.0423 41.6483L54.667 41.2174L53.9129 41.8742L54.2882 42.305L55.0423 41.6483ZM54.667 41.2174L54.2897 41.6465L55.0407 42.3068L55.418 41.8777L54.667 41.2174Z" fill="black"/>
</svg>
