<svg width="75" height="75" viewBox="0 0 75 75" fill="none" xmlns="http://www.w3.org/2000/svg">
<path d="M62.6632 40.4297H32.5516C31.7543 38.9427 31.0197 38.5109 30.6318 37.8144C30.2439 37.1178 30.264 36.2657 30.6839 35.5881L45.7397 11.2938C46.1404 10.6472 46.8469 10.2539 47.6074 10.2539C48.368 10.2539 49.0745 10.6472 49.4751 11.2938L64.5309 35.5881C64.9509 36.2657 64.9708 37.1177 64.5831 37.8144C64.1953 38.511 63.4605 38.9427 62.6632 40.4297Z" fill="#AF8663"/>
<path d="M64.5309 35.5881L49.4751 11.2938C49.0745 10.6472 48.368 10.2539 47.6074 10.2539V40.4297H62.6632C63.4605 38.9427 64.1952 38.5109 64.5831 37.8144C64.9709 37.1178 64.9509 36.2657 64.5309 35.5881Z" fill="#896645"/>
<path d="M51.8731 42.728L26.0376 1.03989C25.637 0.393311 24.9305 0 24.1699 0C23.4094 0 22.7029 0.393311 22.3022 1.03989L0.32959 36.4951L8.78906 46.0828H49.9431C50.6193 46.0828 51.278 45.8026 51.7053 45.2785C52.309 44.5376 52.3608 43.5152 51.8731 42.728Z" fill="#896645"/>
<path d="M51.873 42.728L26.0376 1.03989C25.637 0.393311 24.9305 0 24.1699 0V46.0828H49.9431C50.6193 46.0828 51.278 45.8026 51.7053 45.2785C52.309 44.5376 52.3608 43.5152 51.873 42.728Z" fill="#73543B"/>
<path d="M72.8027 35.4554C70.7358 35.4554 68.6845 35.8759 66.7852 36.6813C64.794 34.951 62.2422 33.9844 59.5642 33.9844C56.8002 33.9844 54.1567 35.0124 52.1209 36.8791C50.7473 38.1384 49.7285 39.7058 49.137 41.4352C48.6942 41.3713 48.247 41.3392 47.7967 41.3392C44.828 41.3392 42.1178 42.6889 40.3414 44.9281C39.4667 44.5063 38.5003 44.2812 37.5 44.2812C36.4997 44.2812 35.5333 44.5063 34.6586 44.9281C32.8822 42.6889 30.172 41.3392 27.2033 41.3392C26.753 41.3392 26.3058 41.3713 25.863 41.4352C25.2715 39.7058 24.2527 38.1385 22.8791 36.8791C20.8433 35.0124 18.1998 33.9844 15.4358 33.9844C12.7578 33.9844 10.206 34.951 8.21484 36.6813C6.31553 35.8759 4.26416 35.4554 2.19727 35.4554C0.983789 35.4554 0 36.4392 0 37.6526V52.887L37.5 64.7461L75 52.887V37.6526C75 36.4392 74.0162 35.4554 72.8027 35.4554Z" fill="#00CB75"/>
<path d="M72.8027 35.4554C70.7358 35.4554 68.6845 35.8759 66.7852 36.6813C64.794 34.951 62.2422 33.9844 59.5642 33.9844C56.8002 33.9844 54.1567 35.0124 52.1209 36.8791C50.7473 38.1384 49.7285 39.7058 49.137 41.4352C48.6942 41.3713 48.247 41.3392 47.7967 41.3392C44.828 41.3392 42.1178 42.6889 40.3414 44.9281C39.4667 44.5063 38.5003 44.2812 37.5 44.2812V64.7461L75 52.887V37.6526C75 36.4392 74.0162 35.4554 72.8027 35.4554Z" fill="#00A763"/>
<path d="M72.8027 75H2.19727C0.983789 75 0 74.0162 0 72.8027V52.887H2.19727C4.26416 52.887 6.31553 53.3076 8.21484 54.1129C10.206 52.3827 12.7578 51.416 15.4358 51.416C18.1998 51.416 20.8433 52.444 22.8791 54.3107C24.2527 55.57 25.2715 57.1374 25.863 58.8668C26.3058 58.8029 26.753 58.7709 27.2033 58.7709C30.172 58.7709 32.8822 60.1206 34.6586 62.3597C35.5333 61.938 36.4997 61.7128 37.5 61.7128C38.5003 61.7128 39.4667 61.938 40.3414 62.3597C42.1178 60.1206 44.828 58.7709 47.7967 58.7709C48.247 58.7709 48.6942 58.8029 49.137 58.8668C49.7285 57.1374 50.7473 55.5702 52.1209 54.3107C54.1567 52.444 56.8002 51.416 59.5642 51.416C62.2422 51.416 64.794 52.3827 66.7852 54.1129C68.6845 53.3076 70.7358 52.887 72.8027 52.887H75V72.8027C75 74.0162 74.0162 75 72.8027 75Z" fill="#00A763"/>
<path d="M66.7852 54.1129C64.794 52.3827 62.2422 51.416 59.5642 51.416C56.8002 51.416 54.1567 52.444 52.1209 54.3107C50.7473 55.57 49.7285 57.1374 49.137 58.8668C48.6942 58.8029 48.247 58.7709 47.7967 58.7709C44.828 58.7709 42.1178 60.1206 40.3414 62.3597C39.4667 61.938 38.5003 61.7128 37.5 61.7128V75H72.8027C74.0162 75 75 74.0162 75 72.8027V52.887H72.8027C70.7358 52.887 68.6845 53.3076 66.7852 54.1129Z" fill="#007845"/>
<path d="M66.2109 17.5781C61.3646 17.5781 57.4219 13.6354 57.4219 8.78906C57.4219 3.94277 61.3646 0 66.2109 0C71.0572 0 75 3.94277 75 8.78906C75 13.6354 71.0572 17.5781 66.2109 17.5781Z" fill="#FFDD54"/>
<path d="M66.2109 0V17.5781C71.0572 17.5781 75 13.6354 75 8.78906C75 3.94277 71.0572 0 66.2109 0Z" fill="#FF9D21"/>
</svg>
