<svg width="75" height="71" viewBox="0 0 75 71" fill="none" xmlns="http://www.w3.org/2000/svg">
<path d="M35.4254 48.2666C27.6501 51.9469 18.6081 51.8156 10.9428 47.9114V51.3286C10.9428 51.3286 17.4018 54.5546 23.1841 54.5546C28.9664 54.5546 35.4254 51.6913 35.4254 51.6913V48.2666Z" fill="#FBD22F"/>
<path d="M63.8658 48.4853C56.09 52.1651 47.0485 52.0339 39.3827 48.1301V51.5474C39.3827 51.5474 46.0195 54.5753 51.6245 54.5753C57.2289 54.5753 63.8658 51.9026 63.8658 51.9026V48.4853Z" fill="#FBD22F"/>
<path d="M16.0965 1.427H58.8553V32.3072H16.0965V1.427Z" fill="#79C3E8"/>
<path d="M20.7577 5.38428H54.1941V28.343H20.7577V5.38428Z" fill="white"/>
<path d="M53.7839 13.9829C47.5028 13.9829 49.5324 23.9142 44.2698 25.3221C39.0067 26.73 37.4348 24.5151 31.1056 22.588C24.7769 20.6604 21.1679 28.3361 21.1679 28.3361H54.1941L53.7839 13.9829Z" fill="#F4E190"/>
<path d="M6.95093 44.3573H10.922V69.5711H6.95093V44.3573Z" fill="#C1C1C1"/>
<path d="M12.7744 40.8369C12.7744 42.9548 11.0578 44.6713 8.93997 44.6713C6.82264 44.6713 5.10559 42.9548 5.10559 40.8369C5.10559 38.7196 6.82264 37.0026 8.93997 37.0026C11.0578 37.0026 12.7744 38.7196 12.7744 40.8369Z" fill="#C1C1C1"/>
<path d="M35.4116 44.3573H39.3827V69.5711H35.4116V44.3573Z" fill="#C1C1C1"/>
<path d="M41.235 40.8369C41.235 42.9548 39.5179 44.6713 37.4006 44.6713C35.2832 44.6713 33.5662 42.9548 33.5662 40.8369C33.5662 38.7196 35.2832 37.0026 37.4006 37.0026C39.5179 37.0026 41.235 38.7196 41.235 40.8369Z" fill="#C1C1C1"/>
<path d="M64.0298 44.3573H68.0004V69.5711H64.0298V44.3573Z" fill="#C1C1C1"/>
<path d="M69.8527 40.8369C69.8527 42.9548 68.1361 44.6713 66.0183 44.6713C63.901 44.6713 62.1839 42.9548 62.1839 40.8369C62.1839 38.7196 63.901 37.0026 66.0183 37.0026C68.1361 37.0026 69.8527 38.7196 69.8527 40.8369Z" fill="#C1C1C1"/>
<path d="M43.4291 14.3995C43.4291 16.6798 41.5808 18.5282 39.301 18.5282C37.0207 18.5282 35.1723 16.6798 35.1723 14.3995C35.1723 12.1197 37.0207 10.2714 39.301 10.2714C41.5808 10.2714 43.4291 12.1197 43.4291 14.3995Z" fill="#FBD22F"/>
<path d="M59.8466 1.17388C59.8486 1.1397 59.8486 1.10551 59.8466 1.07133L59.8055 0.982656L59.7574 0.89398L59.696 0.804808V0.75725L59.532 0.640831L59.4572 0.579402L59.3477 0.545219L59.2655 0.497166L59.1699 0.456543H15.7274L15.6249 0.497166L15.5426 0.538284L15.454 0.593273L15.3787 0.654702L15.3034 0.729507V0.777561L15.2419 0.866237L15.1944 0.954914L15.1533 1.04409C15.1513 1.07827 15.1513 1.11245 15.1533 1.14663C15.1533 1.14663 15.1533 1.20806 15.1533 1.23531C15.1513 1.27147 15.1513 1.30863 15.1533 1.34479C15.1533 1.34479 15.1533 1.34479 15.1533 1.39929V32.3067C15.1533 32.3067 15.1533 32.3067 15.1533 32.3617C15.1513 32.3979 15.1513 32.4345 15.1533 32.4707C15.1533 32.4707 15.1533 32.5326 15.1533 32.5598C15.1513 32.594 15.1513 32.6282 15.1533 32.6624L15.1944 32.7511L15.2419 32.8398L15.3034 32.9289V32.977L15.399 33.0657L15.4609 33.1201L15.5768 33.1885L15.6382 33.2227L15.7953 33.2772H15.8364C15.9068 33.2846 15.9781 33.2846 16.0484 33.2772H58.8558C58.9262 33.2846 58.997 33.2846 59.0674 33.2772H59.1085L59.266 33.2227L59.3274 33.1885L59.4434 33.1201L59.5048 33.0657L59.6004 32.977V32.9289L59.6623 32.8398L59.7099 32.7511L59.751 32.6624C59.753 32.6282 59.753 32.594 59.751 32.5598C59.751 32.5598 59.751 32.4984 59.751 32.4707C59.753 32.4345 59.753 32.3979 59.751 32.3617C59.751 32.3617 59.751 32.3617 59.751 32.3067V1.42703C59.751 1.42703 59.751 1.42703 59.751 1.37253C59.753 1.33637 59.753 1.29922 59.751 1.26305C59.751 1.26305 59.8535 1.20162 59.8466 1.17388ZM56.0667 2.45201L53.8181 4.35929H21.1337L18.8851 2.45201H56.0667ZM53.1964 12.9916C49.6013 13.3334 48.446 16.6417 47.5097 19.3347C46.7096 21.6378 45.9581 23.8116 44.0305 24.3239C40.6811 25.2468 39.0889 24.5631 36.2047 23.3806C34.6407 22.7138 33.0441 22.1273 31.4202 21.6244C27.1483 20.3394 23.8059 22.8545 21.7554 25.4246V6.40975H53.1959V12.9916H53.1964ZM30.8049 23.5857C32.3723 24.0603 33.915 24.6146 35.4255 25.2468C38.3919 26.4635 40.538 27.3448 44.5294 26.2856C47.5097 25.4925 48.5213 22.5677 49.4234 19.9837C50.4078 17.1817 51.1459 15.3566 53.1964 15.0559V27.2972H22.9518C24.2433 25.4038 26.9571 22.4171 30.8049 23.5857ZM17.1353 3.6484L19.705 5.86283V27.8714L17.0942 30.0858L17.1353 3.6484ZM18.8851 31.2817L21.1337 29.3477H53.8181L56.0667 31.2545L18.8851 31.2817ZM57.8437 30.0928L55.2468 27.8714V5.86283L57.8576 3.6484L57.8437 30.0928Z" fill="#1D2128"/>
<path d="M1.02498 70.5966H73.9263C74.4926 70.5966 74.9518 70.1373 74.9518 69.5711C74.9518 69.0053 74.4926 68.5461 73.9263 68.5461H69.0258V44.6238C71.1323 42.9608 71.4924 39.9051 69.8294 37.7982C68.1668 35.6918 65.1107 35.3316 63.0043 36.9947C60.8979 38.6577 60.5377 41.7134 62.2003 43.8198C62.4366 44.1185 62.7056 44.388 63.0043 44.6238V47.7062C55.7977 50.9367 47.536 50.8396 40.4082 47.4397V44.6511C42.5146 42.988 42.8748 39.9324 41.2117 37.826C39.5487 35.7195 36.493 35.3589 34.3866 37.0219C32.2797 38.685 31.9195 41.7406 33.5826 43.8475C33.8184 44.1463 34.0879 44.4153 34.3866 44.6511V47.5972C27.2167 50.7554 19.0263 50.633 11.954 47.2623V44.6511C14.0609 42.988 14.4211 39.9324 12.758 37.826C11.0949 35.7195 8.03933 35.3589 5.9324 37.0219C3.82596 38.685 3.46581 41.7406 5.12886 43.8475C5.36467 44.1463 5.63367 44.4153 5.9324 44.6511V68.5734H1.02498C0.459234 68.5734 0 69.0326 0 69.5988C0 70.1646 0.459234 70.6238 1.02498 70.6238V70.5966ZM11.9609 52.9554C19.0922 56.0621 27.1716 56.1755 34.3866 53.27V68.5526H11.9475L11.9609 52.9554ZM36.444 68.5461V45.6082C37.0776 45.7355 37.731 45.7355 38.3646 45.6082V68.5461H36.444ZM40.4151 53.1536C47.6043 56.2875 55.7571 56.3742 63.0112 53.3929V68.5461H40.4082L40.4151 53.1536ZM65.0617 68.5461V45.6082C65.6953 45.7355 66.3487 45.7355 66.9823 45.6082V68.5461H65.0617ZM66.0252 38.0281C67.5768 38.0281 68.8346 39.2854 68.8346 40.837C68.8346 42.3886 67.5768 43.6464 66.0252 43.6464C64.4736 43.6464 63.2163 42.3886 63.2163 40.837C63.2198 39.2923 64.4672 38.039 66.0118 38.0281H66.0252ZM51.9936 52.142C55.7685 52.144 59.5068 51.4053 62.9973 49.9687V51.1581C55.7908 54.3881 47.5295 54.291 40.4012 50.8916V49.7294C44.0573 51.3246 48.0046 52.1464 51.9936 52.142ZM37.3937 38.0281C38.9453 38.0281 40.2031 39.2854 40.2031 40.837C40.2031 42.3886 38.9453 43.6464 37.3937 43.6464C35.8421 43.6464 34.5848 42.3886 34.5848 40.837C34.5882 39.2869 35.8436 38.0316 37.3937 38.0281ZM23.5394 51.9438C27.2563 51.9513 30.9391 51.2414 34.3866 49.8523V51.0417C27.2167 54.1999 19.0263 54.0775 11.9545 50.7068V49.5451C15.6095 51.1348 19.5534 51.9513 23.5394 51.9438ZM8.93996 38.0281C10.4915 38.0281 11.7494 39.2854 11.7494 40.837C11.7494 42.3886 10.4915 43.6464 8.93996 43.6464C7.38837 43.6464 6.13105 42.3886 6.13105 40.837C6.13452 39.2869 7.38986 38.0316 8.93996 38.0281ZM7.97641 45.6082C8.61003 45.7355 9.26346 45.7355 9.89707 45.6082V68.5461H7.97641V45.6082Z" fill="#1D2128"/>
<path d="M39.3009 19.5601C42.147 19.5601 44.4541 17.2525 44.4541 14.4064C44.4541 11.5604 42.147 9.25281 39.3009 9.25281C36.4549 9.25281 34.1473 11.5604 34.1473 14.4064C34.1513 17.251 36.4559 19.5561 39.3009 19.5601ZM39.3009 11.3033C41.0145 11.3033 42.4041 12.6929 42.4041 14.4064C42.4041 16.12 41.0145 17.5096 39.3009 17.5096C37.5874 17.5096 36.1978 16.12 36.1978 14.4064C36.1978 12.6919 37.5859 11.3008 39.3009 11.2968V11.3033Z" fill="#1D2128"/>
</svg>
