<svg width="132" height="140" viewBox="0 0 132 140" fill="none" xmlns="http://www.w3.org/2000/svg">
<path d="M124.024 97.0195H7.52089C4.5005 97.0195 2.05215 94.5712 2.05215 91.5508V71.4176C2.05215 68.3973 4.5005 65.9489 7.52089 65.9489H124.024C127.045 65.9489 129.493 68.3973 129.493 71.4176V91.5508C129.493 94.5712 127.045 97.0195 124.024 97.0195Z" fill="#C59191"/>
<path d="M124.024 65.9489H115.821C118.841 65.9489 121.29 68.3973 121.29 71.4176V91.5508C121.29 94.5712 118.841 97.0196 115.821 97.0196H124.024C127.045 97.0196 129.493 94.5712 129.493 91.5508V71.4176C129.493 68.3973 127.045 65.9489 124.024 65.9489Z" fill="#B98080"/>
<path d="M110.003 65.9489H118.207V97.0196H110.003V65.9489Z" fill="#EAF6FF"/>
<path d="M13.3385 65.9489H21.5416V97.0196H13.3385V65.9489Z" fill="#EAF6FF"/>
<path d="M114.444 129.746V103.563C114.444 95.8591 109.084 89.1927 101.56 87.5392L81.4148 83.1117C78.9068 82.5605 77.1199 80.3385 77.1199 77.7704V61.1132H54.4246V77.7704C54.4246 80.3382 52.638 82.5605 50.1297 83.1117L29.9848 87.5392C22.4609 89.1929 17.1007 95.8591 17.1007 103.563V129.746H114.444Z" fill="#FFE180"/>
<path d="M81.415 83.1117C78.9071 82.5605 77.1202 80.3385 77.1202 77.7704V61.1132H54.4249V77.7704C54.4249 80.3382 52.6383 82.5605 50.13 83.1117L65.7725 99.5179L81.415 83.1117Z" fill="#FFCEBF"/>
<path d="M79.0807 81.966C77.8702 80.9529 77.1202 79.4342 77.1202 77.7704V61.1132L68.9171 65.2147V81.8719C68.9171 84.4398 70.7037 86.662 73.2119 87.2133L73.7211 87.3251" fill="#FFB09E"/>
<path d="M73.7211 87.3251L93.3568 91.6408C100.881 93.2945 106.241 99.9606 106.241 107.664V129.746H114.444V103.563C114.444 95.8591 109.084 89.193 101.56 87.5392L81.4148 83.1117C80.5318 82.9176 79.738 82.5164 79.0804 81.966" fill="#FBD270"/>
<path d="M88.9026 35.7737V53.8206C88.9026 60.2081 86.3131 65.9913 82.1295 70.1749C77.9432 74.3612 72.16 76.9506 65.7725 76.9506C61.4495 76.9506 57.4054 75.7639 53.9437 73.6995C53.4105 73.385 52.8937 73.0459 52.3905 72.6877C46.4925 68.4987 42.6425 61.6081 42.6425 53.8206V35.7737H88.9026Z" fill="#FFCEBF"/>
<path d="M88.9026 35.7737V53.8206C88.9026 60.2081 86.3131 65.9913 82.1295 70.1749C77.9432 74.3612 72.16 76.9506 65.7725 76.9506C61.4495 76.9506 57.4054 75.7639 53.9436 73.6995C53.4241 73.3577 52.9073 73.0213 52.3905 72.6877C60.5581 76.0373 69.6225 74.4405 75.2416 68.7393C80.9346 62.9588 80.7623 55.3245 80.6994 53.8206V35.7737H88.9026Z" fill="#FFB09E"/>
<path d="M88.9023 29.5265H42.6428V14.7795C42.6428 7.74974 48.3418 2.05077 55.3715 2.05077H76.1735C83.2033 2.05077 88.9023 7.74974 88.9023 14.7795V29.5265Z" fill="#C59191"/>
<path d="M76.1735 2.05077H67.9704C75.0002 2.05077 80.6992 7.74974 80.6992 14.7795V29.5265H88.9023V14.7795C88.9023 7.74974 83.2033 2.05077 76.1735 2.05077Z" fill="#B98080"/>
<path d="M36.3816 39.073H95.1635C96.8071 39.073 98.1393 37.7406 98.1393 36.0972V32.5023C98.1393 30.8587 96.8068 29.5265 95.1635 29.5265H36.3816C34.738 29.5265 33.4058 30.859 33.4058 32.5023V36.0972C33.4058 37.7406 34.738 39.073 36.3816 39.073Z" fill="#685E68"/>
<path d="M95.1634 29.5265H86.9603C88.604 29.5265 89.9361 30.859 89.9361 32.5023V36.0969C89.9361 37.7406 88.6037 39.0728 86.9603 39.0728H95.1634C96.8071 39.0728 98.1393 37.7403 98.1393 36.0969V32.5023C98.1393 30.8587 96.8071 29.5265 95.1634 29.5265Z" fill="#554E56"/>
<path d="M91.7433 49.9917H88.9023V39.073H91.7433C94.7585 39.073 97.2025 41.5173 97.2025 44.5322C97.2025 47.5474 94.7582 49.9917 91.7433 49.9917Z" fill="#FFCEBF"/>
<path d="M39.8018 49.9917H42.6428V39.073H39.8018C36.7866 39.073 34.3426 41.5173 34.3426 44.5322C34.3426 47.5474 36.7868 49.9917 39.8018 49.9917Z" fill="#FFB09E"/>
<path d="M88.0724 84.5749L81.415 83.1117C80.5321 82.9176 79.7413 82.5132 79.0834 81.9625L66.1592 94.8867C65.9456 95.1003 65.5995 95.1003 65.3859 94.8867L52.4616 81.9627C51.804 82.5132 51.0132 82.9179 50.13 83.112L43.4727 84.5752L61.9053 103.008C64.0409 105.143 67.5037 105.143 69.6392 103.008L88.0724 84.5749Z" fill="#82AEE3"/>
<path d="M73.7211 87.3251L83.2317 89.4153L88.0724 84.5746L81.415 83.1114C80.5321 82.9173 79.7383 82.5162 79.0807 81.9657L73.7211 87.3251Z" fill="#528FD8"/>
<path d="M14.9548 140C13.4446 140 12.2204 138.776 12.2204 137.265V106.113C12.2204 104.11 14.3653 102.787 16.2337 103.637L38.9965 113.992V140H14.9548Z" fill="#8DDAA7"/>
<path d="M92.5475 113.993V140H38.9976V113.993L63.3799 102.9C64.1374 102.555 64.9549 102.383 65.7725 102.383C66.5901 102.383 67.4077 102.555 68.1651 102.9L92.5475 113.993Z" fill="#8DDAA7"/>
<path d="M92.5486 140V113.993L115.311 103.637C117.18 102.787 119.325 104.111 119.325 106.113V137.265C119.325 138.776 118.1 140 116.59 140H92.5486Z" fill="#B0E6A0"/>
<path d="M115.311 103.637L111.061 105.571C111.097 105.745 111.122 105.925 111.122 106.113V137.265C111.122 138.776 109.897 140 108.387 140H116.59C118.1 140 119.325 138.776 119.325 137.265V106.113C119.325 104.111 117.179 102.787 115.311 103.637Z" fill="#8DDAA7"/>
<path d="M65.7725 102.383V140H38.9976V113.993L63.3799 102.9C64.1374 102.555 64.9549 102.383 65.7725 102.383Z" fill="#B0E6A0"/>
<path d="M124.096 133.847H116.11C113.471 133.847 111.332 131.708 111.332 129.07V119.216C111.332 116.577 113.471 114.438 116.11 114.438H124.095C124.997 114.438 125.774 115.067 125.967 115.948C126.495 118.362 126.917 121.404 126.846 124.912C126.789 127.757 126.421 130.261 125.967 132.338C125.774 133.219 124.997 133.847 124.096 133.847Z" fill="#FFCEBF"/>
<path d="M125.967 115.948C125.774 115.067 124.997 114.438 124.095 114.438H116.11C116.063 114.438 116.018 114.444 115.972 114.445C116.839 114.481 117.577 115.093 117.764 115.947C118.292 118.362 118.714 121.404 118.643 124.912C118.586 127.756 118.219 130.261 117.764 132.338C117.577 133.192 116.839 133.804 115.973 133.84C116.018 133.841 116.063 133.847 116.11 133.847H124.096C124.997 133.847 125.774 133.218 125.967 132.337C126.421 130.261 126.789 127.756 126.846 124.911C126.917 121.404 126.495 118.362 125.967 115.948Z" fill="#FFB09E"/>
<path d="M7.44951 133.847H15.4355C18.0742 133.847 20.2133 131.708 20.2133 129.07V119.216C20.2133 116.577 18.0742 114.438 15.4355 114.438H7.44979C6.54799 114.438 5.77116 115.067 5.57839 115.948C5.05038 118.362 4.62847 121.404 4.69901 124.912C4.75616 127.757 5.12366 130.261 5.57811 132.338C5.77089 133.219 6.54799 133.847 7.44951 133.847Z" fill="#FFCEBF"/>
<path d="M15.4355 114.438H7.44979C7.42272 114.438 7.39674 114.444 7.36967 114.445C9.94436 114.518 12.0102 116.624 12.0102 119.216V129.07C12.0102 131.662 9.94436 133.767 7.36967 133.841C7.39674 133.842 7.42245 133.847 7.44952 133.847H15.4355C18.0742 133.847 20.2133 131.708 20.2133 129.07V119.216C20.2133 116.577 18.0742 114.438 15.4355 114.438Z" fill="#FFB09E"/>
<path d="M124.026 63.8995H88.8555C90.4486 60.2412 91.1253 56.1128 90.9531 52.0424C95.2829 52.2809 99.253 49.0929 99.253 44.5325C99.253 42.958 98.7649 41.496 97.9336 40.2874C99.2915 39.3864 100.19 37.8456 100.19 36.0972V32.5026C100.19 29.7308 97.9347 27.476 95.1632 27.476H90.9528V14.7795C90.9531 6.63003 84.323 0 76.1735 0H55.3715C47.222 0 40.592 6.63003 40.592 14.7795V27.4758H36.3816C33.6098 27.4758 31.355 29.7308 31.355 32.5024V36.097C31.355 37.8453 32.2533 39.3861 33.6111 40.2871C32.7799 41.4957 32.2918 42.9578 32.2918 44.5322C32.2918 48.9108 36.1705 52.4739 40.5917 52.0422C40.2062 55.8916 41.2266 60.5083 42.6994 63.8992H7.51952C3.37312 63.8992 0 67.2723 0 71.4187V91.5492C0 95.6956 3.37312 99.0687 7.51952 99.0687H15.6113C15.4243 99.8116 15.2827 100.567 15.1889 101.329C14.2072 101.298 13.2253 101.56 12.3697 102.111C10.9916 102.997 10.1691 104.493 10.1691 106.112V112.387H7.44979C5.59999 112.387 3.97058 113.7 3.57491 115.509C2.89679 118.61 2.58507 121.788 2.64851 124.953C2.70101 127.577 3.01273 130.209 3.57464 132.776C3.97058 134.585 5.60026 135.898 7.44952 135.898H10.1691V137.949C10.1691 139.082 11.0873 140 12.2199 140C13.3525 140 14.2707 139.082 14.2707 137.949V135.898H15.4358C19.201 135.898 22.2643 132.835 22.2643 129.07V119.216C22.2643 115.451 19.201 112.387 15.4358 112.387H14.2709V106.113C14.2983 105.572 14.7935 105.26 15.3852 105.505L36.9471 115.313V137.949C36.9471 139.082 37.8653 140 38.9978 140C40.1304 140 41.0486 139.082 41.0486 137.949V115.312L63.722 104.998V137.949C63.722 139.082 64.6402 140 65.7728 140C66.9054 140 67.8236 139.082 67.8236 137.949V104.997C68.3275 105.246 89.9567 115.051 90.4981 115.313V137.949C90.4981 139.082 91.4163 140 92.5488 140C93.6814 140 94.5996 139.082 94.5996 137.949V115.313L116.161 105.505C116.764 105.262 117.247 105.572 117.275 106.113V112.388H116.11C112.345 112.388 109.281 115.451 109.281 119.216V129.07C109.281 132.835 112.345 135.898 116.11 135.898H117.275V137.949C117.275 139.082 118.193 140 119.326 140C120.458 140 121.376 139.082 121.376 137.949V135.898H124.096C125.945 135.898 127.575 134.585 127.971 132.777C128.533 130.209 128.844 127.577 128.897 124.953C128.961 121.788 128.649 118.611 127.971 115.509C127.575 113.701 125.946 112.388 124.096 112.388H121.376V106.113C121.376 104.494 120.554 102.998 119.176 102.111C118.32 101.561 117.338 101.298 116.357 101.329C116.263 100.567 116.121 99.8119 115.934 99.069H124.026C128.172 99.069 131.546 95.6958 131.546 91.5494V71.419C131.545 67.2726 128.172 63.8995 124.026 63.8995ZM11.2878 94.9674H7.51952C5.63472 94.9674 4.10155 93.4342 4.10155 91.5494V71.419C4.10155 69.5342 5.63472 68.001 7.51952 68.001H11.2878V94.9674ZM15.4355 116.489C16.9391 116.489 18.1625 117.712 18.1625 119.216V129.07C18.1625 130.574 16.9391 131.797 15.4355 131.797H7.55889C7.06807 129.522 6.79573 127.193 6.74925 124.871C6.69264 122.063 6.96526 119.243 7.55917 116.489H15.4355V116.489ZM123.986 116.489C124.58 119.243 124.852 122.063 124.796 124.871C124.749 127.193 124.477 129.522 123.986 131.797H116.11C114.606 131.797 113.383 130.573 113.383 129.07V119.216C113.383 117.712 114.606 116.489 116.11 116.489H123.986V116.489ZM107.953 68.001V88.0027C106.137 86.8458 104.122 86.0017 102 85.5352L81.8547 81.108C80.2997 80.7673 79.1712 79.364 79.1712 77.771V75.1429C80.7481 74.1479 82.2291 72.976 83.5798 71.6252C84.7045 70.5005 85.705 69.2857 86.5841 68.0013H107.953V68.001ZM90.9533 47.9409V41.1238C93.0599 40.8023 95.1517 42.3242 95.1517 44.5322C95.1517 46.7 93.0799 48.2769 90.9533 47.9409ZM44.6935 14.7795C44.6935 8.89162 49.4836 4.10155 55.3715 4.10155H76.1735C82.0614 4.10155 86.8515 8.89162 86.8515 14.7795V27.4758H44.6935V14.7795ZM40.5917 47.9409C38.437 48.2017 36.3934 46.7938 36.3934 44.5325C36.3934 42.3338 38.4953 40.8094 40.5917 41.1241V47.9409ZM36.3816 37.0223C35.8714 37.0223 35.4566 36.6072 35.4566 36.0972V32.5026C35.4566 31.9924 35.8716 31.5776 36.3816 31.5776H95.1634C95.6737 31.5776 96.0885 31.9927 96.0885 32.5026V36.0972C96.0885 36.6075 95.6734 37.0223 95.1634 37.0223H60.7654C59.6328 37.0223 58.7146 37.9405 58.7146 39.0731C58.7146 40.2056 59.6328 41.1238 60.7654 41.1238H86.8518V53.8206C86.8548 59.4745 84.6323 64.772 80.6795 68.7248C79.3137 70.0907 77.7906 71.2405 76.1552 72.1691C72.9814 73.9713 69.5375 74.8999 65.7725 74.8999C54.1495 74.8999 44.6933 65.4436 44.6933 53.8206V41.1238H51.1951C52.3276 41.1238 53.2458 40.2056 53.2458 39.0731C53.2458 37.9405 52.3276 37.0223 51.1951 37.0223H36.3816ZM76.293 81.8528L65.7725 92.3733L55.252 81.8528C56.1279 80.5119 56.5492 78.8699 56.4757 77.2222C59.3533 78.3695 62.4905 79.0014 65.7725 79.0014C69.0087 79.0014 72.1494 78.3892 75.0694 77.2301C74.9291 78.822 75.4547 80.5652 76.293 81.8528ZM23.5921 68.001H44.9752C46.9259 70.853 49.4475 73.2847 52.3738 75.1312V77.771C52.3738 79.364 51.2454 80.7673 49.6887 81.1082L29.5446 85.5352C27.4224 86.0017 25.408 86.8458 23.5919 88.0027V68.001H23.5921ZM17.1809 94.9674H15.3893V68.001H19.4909V91.559C18.5907 92.6063 17.8199 93.7517 17.1809 94.9674ZM38.9965 111.74L19.1797 102.725C19.5568 96.3871 24.1677 90.9167 30.4256 89.541L42.8178 86.8176L58.7523 102.752L38.9965 111.74ZM92.5486 111.74L72.793 102.752L76.6676 98.8778C77.4685 98.0769 77.4685 96.7784 76.6676 95.9778C75.8667 95.1769 74.5682 95.1769 73.7676 95.9778L68.8017 100.944C66.8633 100.13 64.6815 100.13 62.7431 100.944L47.5726 85.7731L50.5678 85.1149C51.1272 84.9924 51.6583 84.8018 52.1608 84.5629L63.935 96.3371C64.4256 96.8279 65.0783 97.0983 65.7722 97.0983C66.4662 97.0983 67.1189 96.8279 67.6089 96.3373L79.3834 84.5629C79.8857 84.8018 80.4162 84.9921 80.9753 85.1146L83.972 85.7731L80.5994 89.1459C79.7985 89.9468 79.7985 91.2454 80.5994 92.046C81.4003 92.8469 82.6988 92.8469 83.4994 92.046L88.7273 86.8182L101.119 89.5413C107.377 90.917 111.988 96.3874 112.365 102.725L92.5486 111.74ZM116.156 94.9674H114.364C113.726 93.7528 112.953 92.6055 112.054 91.559V68.001H116.156V94.9674H116.156ZM127.444 91.5494C127.444 93.4342 125.91 94.9674 124.026 94.9674H120.257V68.001H124.026C125.91 68.001 127.444 69.5342 127.444 71.419V91.5494ZM76.932 52.311C78.0646 52.311 78.9828 51.3928 78.9828 50.2602V45.7963C78.9828 44.6637 78.0646 43.7455 76.932 43.7455C75.7995 43.7455 74.8813 44.6637 74.8813 45.7963V50.2602C74.8813 51.3928 75.7995 52.311 76.932 52.311ZM52.5622 45.7963V50.2602C52.5622 51.3928 53.4804 52.311 54.613 52.311C55.7456 52.311 56.6638 51.3928 56.6638 50.2602V45.7963C56.6638 44.6637 55.7456 43.7455 54.613 43.7455C53.4804 43.7455 52.5622 44.6637 52.5622 45.7963ZM60.3224 65.1343C61.4599 65.7583 63.308 66.5073 65.6539 66.5316C68.0191 66.5565 70.0543 65.775 71.2224 65.1343C72.2155 64.5896 72.5789 63.343 72.0342 62.3499C71.4895 61.3571 70.243 60.9937 69.2498 61.5381C68.4916 61.954 67.2573 62.4473 65.6968 62.4303C64.2005 62.4145 63.0209 61.9365 62.295 61.5381C61.3016 60.9931 60.0552 61.3568 59.5105 62.3499C58.9659 63.343 59.3295 64.5896 60.3224 65.1343Z" fill="black"/>
</svg>
